<?xml version="1.0" encoding="UTF-8"?>
<svg id="_レイヤー_2" data-name="レイヤー 2" xmlns="http://www.w3.org/2000/svg" xmlns:xlink="http://www.w3.org/1999/xlink" viewBox="0 0 304.24 354.54">
  <defs>
    <style>
      .cls-1 {
        fill: url(#linear-gradient);
      }
    </style>
    <linearGradient id="linear-gradient" x1="25.45" y1="126.66" x2="278.78" y2="379.99" gradientUnits="userSpaceOnUse">
      <stop offset="0" stop-color="#6cc3f4"/>
      <stop offset=".17" stop-color="#7faae9"/>
      <stop offset=".53" stop-color="#b26dcd"/>
      <stop offset="1" stop-color="#fa15a6"/>
    </linearGradient>
  </defs>
  <g id="_レイヤー_1-2" data-name="レイヤー 1">
    <path class="cls-1" d="M134.13,65.76v-8.97l4.55-4.88h8.75l4.69,4.88,4.69-4.88h8.75s4.55,4.88,4.55,4.88v8.97s-17.99,18.31-17.99,18.31l-17.99-18.31ZM189.51,166.49v17.31h17.31v-17.31h-17.31ZM206.83,193.69v17.31h-17.31v-17.31h17.31ZM206.83,220.9v17.31h-17.31v-17.31h17.31ZM206.83,248.11v17.31h-17.31v-17.31h17.31ZM206.83,275.32v17.31h-17.31v-17.31h17.31ZM206.83,302.32v17.31h-17.31v-17.31h17.31ZM67.1,240.24H17.31v-78.61l32.47-32.99v79.4h17.31v-121.67L0,154.53v103.02h49.79v34.43H0v17.31h67.1v-69.06ZM304.24,354.54h-17.31v-192.91l-32.47-32.99v95.18h-17.31V86.37l67.1,68.16v200.01ZM114.72,354.54H0v-17.31h97.41v-82.86h17.31v100.17ZM189.51,62.67l-37.39-37.99-37.39,37.99v162.39h-17.31V55.58L152.12,0l54.71,55.58v100.23h-17.31V62.67ZM184.27,354.54h-40.81V104.25l8.66-8.81,8.66,8.81v232.97h23.5v17.31ZM254.45,251.37v103.17h-42.97v-17.31h25.66v-85.86h17.31Z"/>
  </g>
</svg>