<?xml version="1.0" encoding="UTF-8"?>
<svg id="_レイヤー_2" data-name="レイヤー 2" xmlns="http://www.w3.org/2000/svg" xmlns:xlink="http://www.w3.org/1999/xlink" viewBox="0 0 960 279.42">
  <defs>
    <style>
      .cls-1 {
        fill: url(#linear-gradient);
      }

      .cls-2 {
        fill: #fff;
      }
    </style>
    <linearGradient id="linear-gradient" x1="20.06" y1="99.83" x2="219.72" y2="299.48" gradientUnits="userSpaceOnUse">
      <stop offset="0" stop-color="#6cc3f4"/>
      <stop offset=".17" stop-color="#7faae9"/>
      <stop offset=".53" stop-color="#b26dcd"/>
      <stop offset="1" stop-color="#fa15a6"/>
    </linearGradient>
  </defs>
  <g id="_レイヤー_1-2" data-name="レイヤー 1">
    <g>
      <path class="cls-2" d="M376.45,87.11c1.6-5.41,3.8-10.22,10.2-10.22s9,5.01,10.4,10.22l38.62,135.72c1.4,4.81-4,10.02-9.6,10.02-6.2,0-9.4-5.21-10.8-10.02l-7.4-24.06h-42.62l-7.6,24.06c-1.4,4.81-4.6,10.02-10.8,10.02-5.6,0-11-5.21-9.6-10.02l39.22-135.72ZM386.85,124.39h-.4l-15.61,54.33h31.41l-15.41-54.33ZM528.61,213.6h14.41c6.4,0,13.21,1.4,13.21,9.62s-7.6,9.62-13.21,9.62h-48.82c-5.6,0-13.21-1.2-13.21-9.62s6.8-9.62,13.21-9.62h15.21v-69.56h-15.21c-5.6,0-13.21-1.2-13.21-9.62s6.8-9.62,13.21-9.62h20.21c11,0,14.21,2,14.21,13.43v75.38ZM605.98,96.93v7.22c0,6.42-2.8,10.02-10,10.02s-10-3.61-10-10.02v-27.26h98.84v27.26c0,6.42-2.8,10.02-10,10.02s-10-3.61-10-10.02v-7.22h-19.41v125.9c0,6.42-2.8,10.02-10,10.02s-10-3.61-10-10.02v-125.9h-19.41ZM812.4,212.8c5.2,0,10,2.81,10,10.02s-4.8,10.02-10,10.02h-88.84V86.91c0-6.42,2.8-10.02,10-10.02s10,3.61,10,10.02v125.9h68.83ZM950,212.8c5.2,0,10,2.81,10,10.02s-4.8,10.02-10,10.02h-88.84V76.88h88.84c5.2,0,10,2.81,10,10.02s-4.8,10.02-10,10.02h-68.83v47.91h29.41c5.2,0,10,2.81,10,10.02s-4.8,10.02-10,10.02h-29.41v47.91h68.83ZM518.12,106.59l16.62-16.92v-8.29s-4.21-4.51-4.21-4.51h-8.09s-4.33,4.51-4.33,4.51l-4.33-4.51h-8.09l-4.21,4.51v8.29l16.62,16.92Z"/>
      <path class="cls-1" d="M105.71,51.83v-7.07l3.59-3.84h6.9l3.69,3.84,3.69-3.84h6.9s3.59,3.84,3.59,3.84v7.07s-14.18,14.43-14.18,14.43l-14.18-14.43ZM149.36,131.21v13.65h13.65v-13.65h-13.65ZM163.01,152.66v13.65h-13.65v-13.65h13.65ZM163.01,174.1v13.65h-13.65v-13.65h13.65ZM163.01,195.54v13.65h-13.65v-13.65h13.65ZM163.01,216.99v13.65h-13.65v-13.65h13.65ZM163.01,238.27v13.65h-13.65v-13.65h13.65ZM52.88,189.34H13.65v-61.95l25.59-26v62.58h13.65v-95.89L0,121.79v81.19h39.24v27.14H0v13.65h52.88v-54.43ZM239.78,279.42h-13.65V127.38l-25.59-26v75.02h-13.65v-108.33l52.88,53.72v157.63ZM90.42,279.42H0v-13.65h76.77v-65.3h13.65v78.95ZM149.36,49.39l-29.47-29.94-29.47,29.94v127.99h-13.65V43.8L119.89,0l43.12,43.8v78.99h-13.65V49.39ZM145.23,279.42h-32.17V82.17l6.82-6.94,6.82,6.94v183.61h18.52v13.65ZM200.54,198.11v81.31h-33.87v-13.65h20.22v-67.67h13.65Z"/>
    </g>
  </g>
</svg>