<?xml version="1.0" encoding="UTF-8"?>
<svg id="_レイヤー_2" data-name="レイヤー 2" xmlns="http://www.w3.org/2000/svg" xmlns:xlink="http://www.w3.org/1999/xlink" viewBox="0 0 289.04 420.81">
  <defs>
    <style>
      .cls-1 {
        fill: url(#linear-gradient);
      }

      .cls-2 {
        fill: #fff;
      }
    </style>
    <linearGradient id="linear-gradient" x1="24.18" y1="120.34" x2="264.86" y2="361.01" gradientUnits="userSpaceOnUse">
      <stop offset="0" stop-color="#6cc3f4"/>
      <stop offset=".17" stop-color="#7faae9"/>
      <stop offset=".53" stop-color="#b26dcd"/>
      <stop offset="1" stop-color="#fa15a6"/>
    </linearGradient>
  </defs>
  <g id="_レイヤー_1-2" data-name="レイヤー 1">
    <g>
      <g>
        <path class="cls-2" d="M47.05,416.96l-14.84-52.16c-.54-2-1.46-3.93-4-3.93s-3.31,1.85-3.92,3.93l-15.07,52.16c-.54,1.85,1.54,3.85,3.69,3.85,2.38,0,3.61-2,4.15-3.85l2.92-9.25h16.38l2.85,9.25c.54,1.85,1.77,3.85,4.15,3.85,2.15,0,4.23-2,3.69-3.85ZM22.14,400.01l6-20.88h.15l5.92,20.88h-12.07Z"/>
        <path class="cls-2" d="M127.49,368.57v2.77c0,2.47-1.08,3.85-3.84,3.85s-3.85-1.39-3.85-3.85v-10.48h37.99v10.48c0,2.47-1.08,3.85-3.84,3.85s-3.85-1.39-3.85-3.85v-2.77h-7.46v48.39c0,2.47-1.08,3.85-3.84,3.85s-3.85-1.39-3.85-3.85v-48.39h-7.46Z"/>
        <path class="cls-2" d="M215,413.11c2,0,3.84,1.08,3.84,3.85s-1.85,3.85-3.84,3.85h-34.14v-56.09c0-2.47,1.08-3.85,3.85-3.85s3.84,1.39,3.84,3.85v48.39h26.45Z"/>
        <path class="cls-2" d="M276.06,413.11c2,0,3.84,1.08,3.84,3.85s-1.85,3.85-3.84,3.85h-34.14v-59.94h34.14c2,0,3.84,1.08,3.84,3.85s-1.85,3.85-3.84,3.85h-26.45v18.41h11.3c2,0,3.84,1.08,3.84,3.85s-1.85,3.85-3.84,3.85h-11.3v18.41h26.45Z"/>
        <g>
          <path class="cls-2" d="M89.58,413.41h5.54c2.46,0,5.08.54,5.08,3.7s-2.92,3.7-5.08,3.7h-18.76c-2.15,0-5.08-.46-5.08-3.7s2.61-3.7,5.08-3.7h5.84v-26.74h-5.84c-2.15,0-5.08-.46-5.08-3.7s2.61-3.7,5.08-3.7h7.77c4.23,0,5.46.77,5.46,5.16v28.97Z"/>
          <polygon class="cls-2" points="85.55 372.29 91.94 365.78 91.94 362.6 90.32 360.87 87.22 360.87 85.55 362.6 83.89 360.87 80.78 360.87 79.16 362.6 79.16 365.78 85.55 372.29"/>
        </g>
      </g>
      <path class="cls-1" d="M127.43,62.48v-8.52l4.33-4.63h8.32l4.45,4.63,4.45-4.63h8.32s4.33,4.63,4.33,4.63v8.52s-17.09,17.4-17.09,17.4l-17.09-17.4ZM180.05,158.17v16.45h16.45v-16.45h-16.45ZM196.49,184.02v16.45h-16.45v-16.45h16.45ZM196.49,209.86v16.45h-16.45v-16.45h16.45ZM196.49,235.71v16.45h-16.45v-16.45h16.45ZM196.49,261.56v16.45h-16.45v-16.45h16.45ZM196.49,287.21v16.45h-16.45v-16.45h16.45ZM63.75,228.23H16.45v-74.68l30.85-31.34v75.43h16.45v-115.59L0,146.81v97.87h47.3v32.71H0v16.45h63.75v-65.61ZM289.04,336.83h-16.45v-183.28l-30.85-31.34v90.43h-16.45V82.06l63.75,64.76v190.01ZM108.99,336.83H0v-16.45h92.54v-78.72h16.45v95.17ZM180.05,59.54l-35.53-36.09-35.53,36.09v154.28h-16.45V52.8L144.52,0l51.98,52.8v95.22h-16.45V59.54ZM175.07,336.83h-38.77V99.04l8.22-8.37,8.22,8.37v221.33h22.32v16.45ZM241.74,238.81v98.02h-40.82v-16.45h24.37v-81.57h16.45Z"/>
    </g>
  </g>
</svg>